<?xml version="1.0" encoding="UTF-8" standalone="no"?>
<!-- Created with Inkscape (http://www.inkscape.org/) -->

<svg
   width="210mm"
   height="297mm"
   viewBox="0 0 210 297"
   version="1.1"
   id="svg1"
   xml:space="preserve"
   inkscape:version="1.4.2 (ebf0e940d0, 2025-05-08)"
   sodipodi:docname="logo.svg"
   xmlns:inkscape="http://www.inkscape.org/namespaces/inkscape"
   xmlns:sodipodi="http://sodipodi.sourceforge.net/DTD/sodipodi-0.dtd"
   xmlns:xlink="http://www.w3.org/1999/xlink"
   xmlns="http://www.w3.org/2000/svg"
   xmlns:svg="http://www.w3.org/2000/svg"><sodipodi:namedview
     id="namedview1"
     pagecolor="#ffffff"
     bordercolor="#000000"
     borderopacity="0.25"
     inkscape:showpageshadow="2"
     inkscape:pageopacity="0.0"
     inkscape:pagecheckerboard="0"
     inkscape:deskcolor="#d1d1d1"
     inkscape:document-units="mm"
     inkscape:zoom="1.0141844"
     inkscape:cx="371.23428"
     inkscape:cy="786.34618"
     inkscape:window-width="1920"
     inkscape:window-height="1013"
     inkscape:window-x="0"
     inkscape:window-y="0"
     inkscape:window-maximized="1"
     inkscape:current-layer="g8" /><defs
     id="defs1" /><g
     inkscape:label="Layer 1"
     inkscape:groupmode="layer"
     id="layer1"><circle
       style="opacity:1;fill:#e9afc6;stroke:none;stroke-width:1;stroke-dasharray:none;paint-order:markers stroke fill"
       id="path8"
       cx="217.50511"
       cy="69.012672"
       r="62.131676"
       transform="rotate(45)" /><g
       id="g8"
       transform="translate(0.21989548,-0.04413869)"><path
         style="fill:none;stroke:#ff5555;stroke-width:8;stroke-dasharray:none;paint-order:markers stroke fill"
         d="m 56.83786,225.83788 c 10.750641,-3.17382 24.708066,-7.34512 31.364006,-15.04902 7.87706,-9.11727 3.36142,-23.55536 14.318514,-34.51245 9.1309,-9.1309 23.1607,-4.18724 27.98704,0.63909"
         id="path1-2"
         sodipodi:nodetypes="cssc" /><path
         style="fill:none;stroke:#ff5555;stroke-width:8;stroke-dasharray:none;paint-order:markers stroke fill"
         d="m 81.58504,250.58506 c 3.17382,-10.75064 7.34512,-24.70807 15.04902,-31.36401 9.11727,-7.87706 23.55536,-3.36142 34.51245,-14.31851 9.1309,-9.1309 4.18724,-23.1607 -0.63909,-27.98704"
         id="use2-9"
         sodipodi:nodetypes="cssc" /><path
         style="fill:none;stroke:#aa0044;stroke-width:8;stroke-dasharray:none;paint-order:markers stroke fill"
         d="m 152.72234,179.44774 c -10.75064,3.17382 -24.70807,7.34512 -31.36401,15.04902 -7.87706,9.11727 -3.36142,23.55536 -14.31851,34.51245 -9.1309,9.1309 -23.1607,4.18724 -27.98704,-0.63909"
         id="use3-1"
         sodipodi:nodetypes="cssc" /><path
         style="fill:none;stroke:#aa0044;stroke-width:8;stroke-dasharray:none;paint-order:markers stroke fill"
         d="m 127.9752,154.70055 c -3.17382,10.75064 -7.34512,24.70807 -15.04902,31.36401 -9.11727,7.87706 -23.555356,3.36142 -34.512446,14.31851 -9.1309,9.1309 -4.18724,23.1607 0.63909,27.98704"
         id="use4-2"
         sodipodi:nodetypes="cssc" /><path
         style="fill:none;stroke:#ff5555;stroke-width:8;stroke-dasharray:none;paint-order:markers stroke fill"
         d="m 88.201866,210.78886 c 7.87706,-9.11727 3.36142,-23.55536 14.318514,-34.51245"
         id="path9"
         sodipodi:nodetypes="cc" /><path
         style="fill:none;stroke:#ff5555;stroke-width:8;stroke-dasharray:none;paint-order:markers stroke fill"
         d="m 96.63406,219.22105 c 9.11727,-7.87706 23.55536,-3.36142 34.51245,-14.31851"
         id="path10"
         sodipodi:nodetypes="cc" /></g></g></svg>
